<svg width="2868" height="2361" viewBox="0 0 2868 2361" fill="none" xmlns="http://www.w3.org/2000/svg">
<mask id="mask0_981_4" style="mask-type:alpha" maskUnits="userSpaceOnUse" x="0" y="0" width="2868" height="2361">
<rect width="2868" height="2361" fill="#C4C4C4"/>
</mask>
<g mask="url(#mask0_981_4)">
<g filter="url(#filter0_f_981_4)">
<rect x="-648.459" y="441.363" width="4121.38" height="2065" transform="rotate(-2.34126 -648.459 441.363)" fill="url(#paint0_radial_981_4)"/>
</g>
<g filter="url(#filter1_f_981_4)">
<rect x="1715" y="460.094" width="953.852" height="459.005" transform="rotate(-39.0631 1715 460.094)" fill="url(#paint1_radial_981_4)"/>
</g>
<path d="M2776.55 402.326C2777.37 398.826 2777.08 395.149 2775.79 391.343L2774.85 391.663C2773.01 386.234 2769.02 380.421 2763.04 374.292L2763.75 373.593C2759.37 369.107 2753.96 364.467 2747.57 359.7L2746.97 360.501C2741.77 356.618 2735.9 352.64 2729.42 348.584L2729.95 347.736C2724.27 344.186 2718.12 340.578 2711.52 336.921L2711.04 337.796C2705.17 334.543 2698.94 331.249 2692.37 327.922L2692.82 327.03C2686.72 323.946 2680.34 320.834 2673.67 317.699L2673.24 318.604C2667.04 315.688 2660.6 312.752 2653.92 309.801L2654.32 308.886C2648.04 306.108 2641.54 303.317 2634.85 300.514L2634.47 301.437C2628.1 298.771 2621.56 296.096 2614.84 293.414L2615.21 292.485C2608.78 289.916 2602.18 287.341 2595.44 284.762L2595.08 285.697C2588.59 283.218 2581.97 280.736 2575.21 278.254L2575.55 277.315C2569.02 274.916 2562.36 272.516 2555.58 270.118L2555.24 271.061C2548.67 268.737 2541.99 266.415 2535.2 264.097L2535.52 263.151C2528.91 260.895 2522.2 258.642 2515.39 256.395L2515.08 257.345C2508.44 255.154 2501.71 252.969 2494.89 250.79L2495.2 249.837C2488.53 247.707 2481.77 245.582 2474.93 243.466L2474.64 244.421C2467.94 242.348 2461.17 240.284 2454.32 238.228L2454.61 237.27C2447.89 235.254 2441.1 233.247 2434.25 231.25L2433.97 232.21C2427.24 230.252 2420.45 228.304 2413.6 226.366L2413.87 225.404C2407.12 223.495 2400.31 221.598 2393.44 219.712L2393.18 220.676C2386.4 218.817 2379.58 216.97 2372.69 215.136L2372.95 214.17C2366.16 212.358 2359.31 210.56 2352.41 208.774L2352.16 209.742C2345.34 207.979 2338.48 206.229 2331.57 204.493L2331.82 203.523C2325 201.81 2318.14 200.111 2311.23 198.428L2311 199.399C2304.17 197.734 2297.29 196.083 2290.38 194.448L2290.61 193.474C2287.16 192.659 2283.71 191.847 2280.24 191.04C2276.78 190.232 2273.32 189.433 2269.86 188.641L2269.64 189.615C2262.72 188.028 2255.82 186.471 2248.96 184.947L2249.18 183.97C2242.24 182.429 2235.33 180.92 2228.46 179.444L2228.25 180.422C2221.29 178.925 2214.36 177.462 2207.46 176.032L2207.67 175.053C2200.69 173.606 2193.75 172.193 2186.85 170.815L2186.66 171.795C2179.68 170.399 2172.73 169.038 2165.84 167.713L2166.03 166.731C2159.03 165.387 2152.08 164.079 2145.18 162.807L2145 163.791C2138 162.5 2131.05 161.247 2124.15 160.032L2124.32 159.047C2117.29 157.808 2110.31 156.609 2103.4 155.449L2103.23 156.435C2096.18 155.252 2089.19 154.111 2082.27 153.011L2082.43 152.023C2075.36 150.9 2068.36 149.82 2061.43 148.784L2061.29 149.773C2054.2 148.713 2047.2 147.698 2040.28 146.73L2040.42 145.739C2033.32 144.746 2026.3 143.8 2019.38 142.903L2019.25 143.895C2012.13 142.973 2005.11 142.102 1998.19 141.283L1998.31 140.29C1991.16 139.444 1984.13 138.653 1977.21 137.918L1977.1 138.912C1969.94 138.151 1962.9 137.449 1955.99 136.807L1956.08 135.811C1948.89 135.143 1941.84 134.538 1934.93 133.999L1934.85 134.996C1927.64 134.433 1920.59 133.94 1913.7 133.518L1913.76 132.52C1906.52 132.077 1899.46 131.712 1892.6 131.426L1892.55 132.425C1885.26 132.121 1878.18 131.905 1871.33 131.78L1871.35 130.78C1863.98 130.646 1856.87 130.615 1850.04 130.688L1850.06 131.688C1842.69 131.767 1835.64 131.968 1828.94 132.292L1828.89 131.293C1821.36 131.657 1814.25 132.176 1807.59 132.852L1807.69 133.847C1800.08 134.619 1793.06 135.596 1786.67 136.78L1786.49 135.797C1778.65 137.25 1771.74 139.017 1765.84 141.107L1766.17 142.05C1758.1 144.905 1751.95 148.357 1747.9 152.414L1747.19 151.708C1744.35 154.552 1742.47 157.723 1741.65 161.224C1740.84 164.725 1741.12 168.402 1742.41 172.208L1743.36 171.887C1745.2 177.316 1749.19 183.13 1755.17 189.259L1754.45 189.957C1758.83 194.444 1764.25 199.083 1770.64 203.851L1771.24 203.049C1776.44 206.933 1782.3 210.91 1788.79 214.967L1788.26 215.815C1793.93 219.364 1800.08 222.972 1806.68 226.63L1807.17 225.755C1813.04 229.008 1819.27 232.301 1825.84 235.628L1825.39 236.521C1831.48 239.604 1837.87 242.717 1844.54 245.852L1844.96 244.947C1851.16 247.862 1857.61 250.798 1864.29 253.75L1863.88 254.665C1870.17 257.442 1876.66 260.234 1883.35 263.036L1883.74 262.114C1890.1 264.779 1896.65 267.455 1903.37 270.136L1902.99 271.065C1909.43 273.634 1916.02 276.21 1922.77 278.788L1923.13 277.854C1929.61 280.333 1936.24 282.814 1943 285.297L1942.65 286.235C1949.19 288.635 1955.85 291.034 1962.63 293.432L1962.96 292.49C1969.53 294.813 1976.21 297.135 1983.01 299.454L1982.68 300.4C1989.29 302.656 1996 304.908 2002.81 307.155L2003.13 306.206C2009.76 308.396 2016.49 310.582 2023.31 312.761L2023.01 313.713C2029.68 315.844 2036.44 317.968 2043.27 320.085L2043.57 319.13C2050.27 321.202 2057.04 323.267 2063.89 325.323L2063.6 326.281C2070.32 328.296 2077.1 330.304 2083.96 332.3L2084.24 331.34C2090.96 333.299 2097.75 335.247 2104.61 337.184L2104.33 338.147C2111.08 340.055 2117.9 341.953 2124.77 343.839L2125.03 342.874C2131.8 344.733 2138.63 346.58 2145.51 348.414L2145.25 349.381C2152.05 351.192 2158.9 352.991 2165.8 354.776L2166.05 353.808C2172.86 355.572 2179.72 357.322 2186.63 359.058L2186.39 360.028C2193.21 361.74 2200.07 363.439 2206.97 365.123L2207.21 364.151C2214.04 365.817 2220.91 367.468 2227.82 369.103L2227.59 370.076C2231.04 370.892 2234.5 371.703 2237.96 372.511C2241.43 373.318 2244.89 374.118 2248.34 374.91L2248.57 373.935C2255.49 375.523 2262.38 377.079 2269.25 378.604L2269.03 379.58C2275.97 381.121 2282.87 382.63 2289.75 384.107L2289.96 383.129C2296.92 384.625 2303.85 386.088 2310.74 387.518L2310.54 388.497C2317.52 389.944 2324.45 391.357 2331.35 392.736L2331.55 391.755C2338.53 393.151 2345.47 394.512 2352.37 395.837L2352.18 396.819C2359.17 398.164 2366.12 399.472 2373.02 400.743L2373.2 399.76C2380.21 401.051 2387.16 402.304 2394.06 403.518L2393.88 404.503C2400.92 405.742 2407.89 406.942 2414.81 408.102L2414.97 407.115C2422.02 408.298 2429.01 409.44 2435.94 410.54L2435.78 411.527C2442.85 412.65 2449.85 413.731 2456.77 414.767L2456.92 413.778C2464 414.838 2471.01 415.852 2477.93 416.821L2477.79 417.811C2484.89 418.805 2491.91 419.75 2498.83 420.647L2498.96 419.656C2506.08 420.578 2513.1 421.448 2520.02 422.268L2519.9 423.261C2527.04 424.106 2534.08 424.897 2541 425.633L2541.1 424.638C2548.27 425.399 2555.31 426.101 2562.22 426.744L2562.13 427.74C2569.32 428.408 2576.37 429.012 2583.28 429.552L2583.36 428.555C2590.57 429.118 2597.62 429.611 2604.51 430.032L2604.45 431.03C2611.69 431.474 2618.74 431.839 2625.61 432.125L2625.65 431.126C2632.95 431.43 2640.03 431.645 2646.88 431.77L2646.86 432.77C2654.23 432.905 2661.33 432.936 2668.16 432.863L2668.15 431.863C2675.52 431.783 2682.56 431.582 2689.27 431.259L2689.31 432.258C2696.85 431.894 2703.96 431.375 2710.62 430.699L2710.52 429.704C2718.13 428.932 2725.15 427.955 2731.53 426.771L2731.71 427.754C2739.55 426.3 2746.46 424.533 2752.37 422.443L2752.04 421.5C2760.11 418.645 2766.26 415.194 2770.31 411.136L2771.02 411.843C2773.85 408.998 2775.74 405.827 2776.55 402.326Z" stroke="black" stroke-width="2" stroke-dasharray="22 22"/>
<path d="M1433.15 1171.41C1433.15 1167.69 1433.13 1163.98 1433.09 1160.27L1432.09 1160.28C1432.01 1152.86 1431.85 1145.47 1431.6 1138.1L1432.6 1138.06C1432.36 1130.67 1432.03 1123.3 1431.62 1115.94L1430.62 1116C1430.21 1108.59 1429.72 1101.2 1429.14 1093.83L1430.14 1093.75C1429.57 1086.38 1428.91 1079.03 1428.17 1071.7L1427.18 1071.8C1426.44 1064.42 1425.62 1057.06 1424.71 1049.73L1425.71 1049.61C1424.8 1042.26 1423.81 1034.93 1422.75 1027.63L1421.76 1027.78C1420.69 1020.45 1419.54 1013.15 1418.31 1005.88L1419.29 1005.71C1418.06 998.402 1416.74 991.122 1415.34 983.868L1414.36 984.057C1412.97 976.796 1411.49 969.562 1409.93 962.357L1410.91 962.146C1409.34 954.898 1407.7 947.678 1405.98 940.489L1405 940.722C1403.28 933.538 1401.48 926.383 1399.6 919.259L1400.57 919.004C1398.68 911.832 1396.71 904.69 1394.66 897.581L1393.7 897.858C1391.65 890.756 1389.53 883.685 1387.33 876.648L1388.28 876.349C1386.07 869.276 1383.78 862.236 1381.42 855.23L1380.47 855.55C1378.11 848.544 1375.66 841.572 1373.15 834.636L1374.09 834.295C1371.56 827.334 1368.96 820.409 1366.28 813.52L1365.35 813.882C1362.67 806.988 1359.92 800.13 1357.09 793.309L1358.01 792.926C1355.18 786.091 1352.27 779.292 1349.29 772.532L1348.37 772.936C1345.39 766.168 1342.32 759.439 1339.19 752.749L1340.1 752.325C1336.96 745.626 1333.75 738.966 1330.47 732.347L1329.57 732.791C1326.29 726.163 1322.93 719.576 1319.5 713.031L1320.39 712.567C1316.95 706.015 1313.45 699.505 1309.87 693.038L1309 693.521C1305.42 687.048 1301.77 680.618 1298.06 674.231L1298.92 673.728C1295.2 667.334 1291.41 660.984 1287.55 654.679L1286.7 655.201C1282.84 648.896 1278.91 642.636 1274.91 636.421L1275.75 635.88C1271.75 629.657 1267.68 623.48 1263.55 617.35L1262.72 617.909C1258.59 611.782 1254.39 605.702 1250.12 599.67L1250.94 599.092C1246.67 593.052 1242.33 587.059 1237.93 581.116L1237.12 581.711C1232.73 575.773 1228.26 569.883 1223.74 564.044L1224.53 563.431C1220 557.584 1215.4 551.788 1210.74 546.042L1209.96 546.672C1205.31 540.932 1200.59 535.244 1195.82 529.607L1196.58 528.96C1191.8 523.318 1186.95 517.728 1182.05 512.191L1181.3 512.855C1176.4 507.323 1171.44 501.845 1166.42 496.42L1167.15 495.741C1162.13 490.314 1157.05 484.941 1151.91 479.623L1151.19 480.318C1146.05 475.005 1140.86 469.747 1135.61 464.545L1136.31 463.834C1131.06 458.631 1125.75 453.484 1120.38 448.393L1119.69 449.118C1114.33 444.034 1108.91 439.006 1103.44 434.036L1104.11 433.296C1098.64 428.325 1093.11 423.412 1087.53 418.557L1086.87 419.312C1081.3 414.465 1075.67 409.676 1069.99 404.948L1070.63 404.179C1064.94 399.449 1059.21 394.778 1053.42 390.167L1052.8 390.949C1047.02 386.349 1041.19 381.809 1035.31 377.33L1035.92 376.534C1030.03 372.053 1024.1 367.632 1018.11 363.273L1017.53 364.082C1011.56 359.736 1005.54 355.453 999.475 351.232L1000.05 350.411C993.974 346.186 987.854 342.025 981.685 337.927L981.132 338.76C974.985 334.676 968.79 330.656 962.548 326.7L963.084 325.856C956.838 321.897 950.545 318.003 944.207 314.175L943.69 315.031C937.371 311.215 931.008 307.464 924.599 303.779L925.098 302.912C918.69 299.227 912.237 295.608 905.741 292.056L905.262 292.934C898.783 289.392 892.262 285.916 885.698 282.509L886.159 281.621C879.601 278.217 873.002 274.88 866.361 271.612L865.92 272.509C859.292 269.247 852.623 266.053 845.915 262.929L846.337 262.022C839.644 258.905 832.91 255.856 826.138 252.877L825.735 253.793C818.97 250.817 812.165 247.91 805.323 245.075L805.706 244.151C798.89 241.326 792.036 238.571 785.145 235.887L784.782 236.819C777.899 234.138 770.979 231.527 764.023 228.989L764.366 228.049C757.432 225.518 750.462 223.059 743.458 220.671L743.135 221.618C736.148 219.236 729.126 216.926 722.071 214.689L722.374 213.736C715.332 211.503 708.258 209.343 701.151 207.256L700.869 208.216C693.793 206.138 686.684 204.133 679.544 202.201L679.805 201.236C672.668 199.305 665.499 197.447 658.301 195.664L658.06 196.635C650.909 194.864 643.728 193.166 636.518 191.543L636.738 190.567C629.521 188.942 622.275 187.392 615.001 185.917L614.802 186.897C607.586 185.433 600.342 184.044 593.071 182.73L593.249 181.746C585.977 180.432 578.678 179.192 571.354 178.029L571.197 179.016C563.916 177.86 556.61 176.778 549.279 175.772L549.415 174.782C542.104 173.779 534.768 172.851 527.408 172L527.294 172.993C519.958 172.144 512.599 171.372 505.218 170.675L505.312 169.68C497.977 168.988 490.62 168.371 483.241 167.831L483.168 168.829C475.797 168.289 468.403 167.826 460.989 167.44L461.041 166.441C453.69 166.058 446.318 165.751 438.927 165.52L438.896 166.52C431.521 166.289 424.126 166.135 416.713 166.058L416.723 165.058C413.012 165.019 409.297 165 405.577 165C401.858 165 398.143 165.019 394.432 165.058L394.443 166.058C387.029 166.135 379.635 166.289 372.259 166.52L372.228 165.52C364.837 165.751 357.465 166.058 350.114 166.441L350.166 167.44C342.752 167.826 335.359 168.289 327.987 168.829L327.914 167.831C320.535 168.371 313.178 168.988 305.844 169.68L305.938 170.675C298.556 171.371 291.197 172.144 283.862 172.993L283.747 172C276.387 172.851 269.051 173.779 261.74 174.782L261.876 175.772C254.545 176.778 247.239 177.86 239.958 179.016L239.801 178.029C232.477 179.192 225.178 180.432 217.906 181.746L218.084 182.73C210.813 184.044 203.569 185.433 196.353 186.897L196.154 185.917C188.88 187.392 181.634 188.942 174.417 190.567L174.637 191.543C167.427 193.166 160.246 194.864 153.095 196.635L152.854 195.664C145.655 197.447 138.487 199.305 131.35 201.236L131.611 202.201C124.471 204.132 117.362 206.138 110.285 208.216L110.004 207.256C102.897 209.343 95.8222 211.503 88.7809 213.736L89.0832 214.689C82.0281 216.926 75.0065 219.236 68.0192 221.618L67.6965 220.671C60.6924 223.059 53.7227 225.518 46.7884 228.049L47.1312 228.989C40.1755 231.527 33.2554 234.138 26.3719 236.819L26.009 235.887C19.1185 238.571 12.2648 241.326 5.44861 244.151L5.83148 245.075C-1.01099 247.91 -7.81549 250.817 -14.5811 253.793L-14.9838 252.877C-21.756 255.856 -28.4893 258.905 -35.1827 262.022L-34.7605 262.929C-41.4692 266.053 -48.1379 269.247 -54.7654 272.509L-55.207 271.612C-61.8477 274.88 -68.4472 278.217 -75.0046 281.621L-74.5438 282.509C-81.1077 285.917 -87.6293 289.392 -94.1077 292.934L-94.5875 292.057C-101.083 295.608 -107.536 299.227 -113.944 302.912L-113.445 303.779C-119.854 307.464 -126.217 311.215 -132.536 315.031L-133.053 314.175C-139.391 318.004 -145.684 321.897 -151.93 325.856L-151.395 326.701C-157.636 330.656 -163.831 334.676 -169.978 338.76L-170.532 337.927C-176.7 342.025 -182.821 346.187 -188.892 350.412L-188.321 351.232C-194.387 355.453 -200.404 359.737 -206.371 364.082L-206.96 363.274C-212.945 367.632 -218.879 372.053 -224.763 376.535L-224.157 377.33C-230.036 381.809 -235.865 386.349 -241.641 390.95L-242.264 390.168C-248.053 394.778 -253.79 399.449 -259.474 404.179L-258.834 404.948C-264.516 409.677 -270.144 414.465 -275.718 419.312L-276.375 418.557C-281.958 423.412 -287.486 428.325 -292.96 433.297L-292.288 434.037C-297.76 439.007 -303.177 444.034 -308.537 449.119L-309.225 448.393C-314.592 453.484 -319.903 458.632 -325.156 463.835L-324.452 464.545C-329.704 469.747 -334.898 475.005 -340.033 480.318L-340.752 479.623C-345.893 484.941 -350.975 490.314 -355.998 495.741L-355.264 496.421C-360.284 501.845 -365.245 507.324 -370.145 512.855L-370.893 512.192C-375.798 517.729 -380.642 523.319 -385.425 528.961L-384.662 529.607C-389.44 535.244 -394.157 540.933 -398.81 546.673L-399.587 546.043C-404.246 551.788 -408.841 557.585 -413.373 563.432L-412.583 564.044C-417.109 569.884 -421.572 575.773 -425.97 581.711L-426.774 581.116C-431.176 587.06 -435.513 593.052 -439.784 599.093L-438.968 599.67C-443.233 605.702 -447.433 611.782 -451.566 617.909L-452.395 617.35C-456.53 623.48 -460.599 629.658 -464.6 635.881L-463.759 636.422C-467.755 642.636 -471.683 648.897 -475.542 655.202L-476.395 654.68C-480.254 660.985 -484.045 667.335 -487.767 673.729L-486.902 674.232C-490.62 680.618 -494.267 687.049 -497.845 693.522L-498.72 693.038C-502.294 699.505 -505.798 706.016 -509.231 712.567L-508.345 713.032C-511.775 719.577 -515.133 726.164 -518.419 732.791L-519.315 732.347C-522.597 738.966 -525.806 745.626 -528.943 752.325L-528.038 752.749C-531.171 759.439 -534.231 766.168 -537.217 772.936L-538.132 772.533C-541.114 779.293 -544.024 786.091 -546.858 792.926L-545.934 793.31C-548.763 800.13 -551.517 806.988 -554.196 813.882L-555.128 813.52C-557.805 820.409 -560.407 827.334 -562.933 834.294L-561.993 834.636C-564.51 841.572 -566.952 848.544 -569.317 855.55L-570.264 855.23C-572.63 862.236 -574.918 869.276 -577.13 876.349L-576.175 876.648C-578.375 883.685 -580.499 890.755 -582.545 897.858L-583.506 897.581C-585.553 904.69 -587.523 911.832 -589.415 919.004L-588.448 919.259C-590.326 926.383 -592.127 933.537 -593.849 940.721L-594.822 940.488C-596.545 947.678 -598.19 954.898 -599.755 962.146L-598.778 962.357C-600.334 969.562 -601.811 976.796 -603.208 984.057L-604.19 983.868C-605.586 991.121 -606.902 998.402 -608.138 1005.71L-607.152 1005.88C-608.383 1013.15 -609.533 1020.45 -610.603 1027.78L-611.593 1027.63C-612.659 1034.93 -613.645 1042.26 -614.551 1049.61L-613.558 1049.73C-614.461 1057.06 -615.284 1064.42 -616.025 1071.8L-617.02 1071.7C-617.756 1079.03 -618.412 1086.38 -618.986 1093.75L-617.989 1093.83C-618.563 1101.2 -619.056 1108.59 -619.467 1116L-620.466 1115.94C-620.873 1123.3 -621.201 1130.67 -621.447 1138.06L-620.447 1138.1C-620.692 1145.47 -620.856 1152.86 -620.938 1160.28L-621.938 1160.27C-621.979 1163.98 -622 1167.69 -622 1171.41C-622 1175.13 -621.979 1178.85 -621.938 1182.56L-620.938 1182.54C-620.856 1189.96 -620.692 1197.35 -620.447 1204.73L-621.447 1204.76C-621.201 1212.15 -620.874 1219.53 -620.466 1226.88L-619.467 1226.82C-619.056 1234.23 -618.563 1241.62 -617.989 1248.99L-618.986 1249.07C-618.412 1256.44 -617.756 1263.79 -617.02 1271.12L-616.025 1271.02C-615.284 1278.4 -614.461 1285.76 -613.558 1293.09L-614.551 1293.21C-613.645 1300.56 -612.659 1307.89 -611.593 1315.19L-610.603 1315.04C-609.533 1322.37 -608.383 1329.67 -607.152 1336.95L-608.138 1337.11C-606.902 1344.42 -605.586 1351.7 -604.19 1358.95L-603.208 1358.77C-601.811 1366.03 -600.334 1373.26 -598.778 1380.47L-599.755 1380.68C-598.19 1387.92 -596.545 1395.14 -594.822 1402.33L-593.85 1402.1C-592.127 1409.28 -590.327 1416.44 -588.448 1423.56L-589.415 1423.82C-587.524 1430.99 -585.553 1438.13 -583.506 1445.24L-582.545 1444.96C-580.499 1452.07 -578.376 1459.14 -576.175 1466.17L-577.13 1466.47C-574.918 1473.55 -572.63 1480.59 -570.265 1487.59L-569.317 1487.27C-566.952 1494.28 -564.51 1501.25 -561.993 1508.19L-562.933 1508.53C-560.407 1515.49 -557.805 1522.41 -555.128 1529.3L-554.196 1528.94C-551.517 1535.83 -548.763 1542.69 -545.934 1549.51L-546.858 1549.9C-544.023 1556.73 -541.114 1563.53 -538.132 1570.29L-537.217 1569.89C-534.23 1576.65 -531.17 1583.38 -528.038 1590.07L-528.943 1590.5C-525.806 1597.2 -522.596 1603.86 -519.315 1610.48L-518.419 1610.03C-515.133 1616.66 -511.774 1623.25 -508.345 1629.79L-509.231 1630.26C-505.798 1636.81 -502.294 1643.32 -498.72 1649.78L-497.844 1649.3C-494.267 1655.77 -490.619 1662.2 -486.902 1668.59L-487.766 1669.09C-484.045 1675.49 -480.254 1681.84 -476.395 1688.14L-475.542 1687.62C-471.682 1693.93 -467.754 1700.19 -463.759 1706.4L-464.6 1706.94C-460.599 1713.17 -456.53 1719.34 -452.395 1725.47L-451.566 1724.91C-447.433 1731.04 -443.233 1737.12 -438.967 1743.15L-439.784 1743.73C-435.512 1749.77 -431.175 1755.76 -426.773 1761.71L-425.97 1761.11C-421.572 1767.05 -417.109 1772.94 -412.582 1778.78L-413.373 1779.39C-408.841 1785.24 -404.245 1791.03 -399.587 1796.78L-398.81 1796.15C-394.156 1801.89 -389.44 1807.58 -384.661 1813.22L-385.424 1813.86C-380.642 1819.5 -375.798 1825.09 -370.893 1830.63L-370.144 1829.97C-365.244 1835.5 -360.284 1840.98 -355.263 1846.4L-355.997 1847.08C-350.975 1852.51 -345.893 1857.88 -340.752 1863.2L-340.033 1862.5C-334.897 1867.82 -329.703 1873.08 -324.451 1878.28L-325.155 1878.99C-319.902 1884.19 -314.592 1889.34 -309.225 1894.43L-308.536 1893.7C-303.176 1898.79 -297.759 1903.82 -292.287 1908.79L-292.959 1909.53C-287.486 1914.5 -281.957 1919.41 -276.374 1924.27L-275.718 1923.51C-270.144 1928.36 -264.515 1933.15 -258.834 1937.87L-259.473 1938.64C-253.79 1943.37 -248.053 1948.04 -242.264 1952.66L-241.641 1951.87C-235.864 1956.47 -230.036 1961.01 -224.156 1965.49L-224.762 1966.29C-218.879 1970.77 -212.944 1975.19 -206.959 1979.55L-206.371 1978.74C-200.403 1983.09 -194.386 1987.37 -188.321 1991.59L-188.892 1992.41C-182.82 1996.64 -176.699 2000.8 -170.531 2004.9L-169.978 2004.06C-163.83 2008.15 -157.635 2012.17 -151.394 2016.12L-151.929 2016.97C-145.683 2020.93 -139.39 2024.82 -133.052 2028.65L-132.535 2027.79C-126.217 2031.61 -119.853 2035.36 -113.445 2039.04L-113.943 2039.91C-107.535 2043.6 -101.083 2047.21 -94.5869 2050.77L-94.1072 2049.89C-87.6288 2053.43 -81.1072 2056.91 -74.5434 2060.31L-75.0042 2061.2C-68.4468 2064.61 -61.8473 2067.94 -55.2066 2071.21L-54.765 2070.31C-48.1375 2073.58 -41.4689 2076.77 -34.7602 2079.89L-35.1824 2080.8C-28.489 2083.92 -21.7557 2086.97 -14.9835 2089.95L-14.5809 2089.03C-7.81525 2092.01 -1.01074 2094.91 5.83173 2097.75L5.44891 2098.67C12.265 2101.5 19.1188 2104.25 26.0092 2106.94L26.3721 2106C33.2555 2108.68 40.1756 2111.3 47.1313 2113.83L46.7885 2114.77C53.7228 2117.3 60.6924 2119.76 67.6966 2122.15L68.0192 2121.2C75.0065 2123.59 82.0281 2125.9 89.0832 2128.13L88.7809 2129.09C95.8222 2131.32 102.897 2133.48 110.004 2135.57L110.285 2134.61C117.362 2136.68 124.471 2138.69 131.611 2140.62L131.349 2141.59C138.487 2143.52 145.655 2145.38 152.854 2147.16L153.094 2146.19C160.246 2147.96 167.427 2149.66 174.636 2151.28L174.417 2152.26C181.634 2153.88 188.88 2155.43 196.154 2156.91L196.352 2155.93C203.569 2157.39 210.813 2158.78 218.084 2160.09L217.906 2161.08C225.178 2162.39 232.476 2163.63 239.801 2164.79L239.958 2163.81C247.238 2164.96 254.545 2166.04 261.876 2167.05L261.74 2168.04C269.051 2169.04 276.387 2169.97 283.746 2170.82L283.861 2169.83C291.196 2170.68 298.555 2171.45 305.937 2172.15L305.843 2173.14C313.177 2173.83 320.534 2174.45 327.913 2174.99L327.986 2173.99C335.358 2174.53 342.751 2175 350.165 2175.38L350.113 2176.38C357.465 2176.76 364.836 2177.07 372.227 2177.3L372.259 2176.3C379.634 2176.53 387.029 2176.69 394.442 2176.76L394.432 2177.76C398.142 2177.8 401.857 2177.82 405.577 2177.82C409.297 2177.82 413.012 2177.8 416.722 2177.76L416.712 2176.76C424.125 2176.69 431.52 2176.53 438.895 2176.3L438.926 2177.3C446.318 2177.07 453.689 2176.76 461.04 2176.38L460.988 2175.38C468.403 2175 475.796 2174.53 483.168 2173.99L483.241 2174.99C490.62 2174.45 497.976 2173.83 505.311 2173.14L505.217 2172.15C512.599 2171.45 519.958 2170.68 527.293 2169.83L527.408 2170.82C534.767 2169.97 542.103 2169.04 549.414 2168.04L549.278 2167.05C556.609 2166.04 563.916 2164.96 571.197 2163.81L571.353 2164.79C578.678 2163.63 585.976 2162.39 593.248 2161.08L593.07 2160.09C600.341 2158.78 607.585 2157.39 614.802 2155.93L615 2156.91C622.275 2155.43 629.521 2153.88 636.737 2152.26L636.518 2151.28C643.728 2149.66 650.909 2147.96 658.06 2146.19L658.3 2147.16C665.499 2145.38 672.668 2143.52 679.805 2141.59L679.544 2140.62C686.684 2138.69 693.792 2136.68 700.869 2134.61L701.151 2135.57C708.258 2133.48 715.332 2131.32 722.374 2129.09L722.071 2128.13C729.126 2125.9 736.148 2123.59 743.135 2121.2L743.458 2122.15C750.462 2119.76 757.432 2117.3 764.366 2114.77L764.023 2113.83C770.979 2111.3 777.899 2108.68 784.783 2106L785.146 2106.94C792.036 2104.25 798.89 2101.5 805.706 2098.67L805.323 2097.75C812.165 2094.91 818.97 2092.01 825.736 2089.03L826.138 2089.94C832.911 2086.97 839.644 2083.92 846.337 2080.8L845.915 2079.89C852.624 2076.77 859.292 2073.58 865.92 2070.31L866.362 2071.21C873.002 2067.94 879.602 2064.61 886.159 2061.2L885.698 2060.31C892.262 2056.91 898.784 2053.43 905.262 2049.89L905.742 2050.77C912.238 2047.21 918.69 2043.6 925.099 2039.91L924.6 2039.04C931.008 2035.36 937.372 2031.61 943.69 2027.79L944.207 2028.65C950.546 2024.82 956.838 2020.92 963.084 2016.97L962.549 2016.12C968.79 2012.17 974.985 2008.15 981.133 2004.06L981.686 2004.9C987.854 2000.8 993.975 1996.64 1000.05 1992.41L999.476 1991.59C1005.54 1987.37 1011.56 1983.09 1017.53 1978.74L1018.11 1979.55C1024.1 1975.19 1030.03 1970.77 1035.92 1966.29L1035.31 1965.49C1041.19 1961.01 1047.02 1956.47 1052.8 1951.87L1053.42 1952.65C1059.21 1948.04 1064.94 1943.37 1070.63 1938.64L1069.99 1937.87C1075.67 1933.15 1081.3 1928.36 1086.87 1923.51L1087.53 1924.27C1093.11 1919.41 1098.64 1914.5 1104.11 1909.53L1103.44 1908.79C1108.91 1903.82 1114.33 1898.79 1119.69 1893.7L1120.38 1894.43C1125.75 1889.34 1131.06 1884.19 1136.31 1878.99L1135.61 1878.28C1140.86 1873.07 1146.05 1867.82 1151.19 1862.5L1151.91 1863.2C1157.05 1857.88 1162.13 1852.51 1167.15 1847.08L1166.42 1846.4C1171.44 1840.98 1176.4 1835.5 1181.3 1829.97L1182.05 1830.63C1186.95 1825.09 1191.8 1819.5 1196.58 1813.86L1195.82 1813.22C1200.59 1807.58 1205.31 1801.89 1209.96 1796.15L1210.74 1796.78C1215.4 1791.03 1220 1785.24 1224.53 1779.39L1223.74 1778.78C1228.26 1772.94 1232.73 1767.05 1237.12 1761.11L1237.93 1761.71C1242.33 1755.76 1246.67 1749.77 1250.94 1743.73L1250.12 1743.15C1254.39 1737.12 1258.59 1731.04 1262.72 1724.91L1263.55 1725.47C1267.69 1719.34 1271.75 1713.16 1275.75 1706.94L1274.91 1706.4C1278.91 1700.19 1282.84 1693.93 1286.7 1687.62L1287.55 1688.14C1291.41 1681.84 1295.2 1675.49 1298.92 1669.09L1298.06 1668.59C1301.77 1662.2 1305.42 1655.77 1309 1649.3L1309.87 1649.78C1313.45 1643.32 1316.95 1636.81 1320.39 1630.25L1319.5 1629.79C1322.93 1623.25 1326.29 1616.66 1329.57 1610.03L1330.47 1610.48C1333.75 1603.86 1336.96 1597.2 1340.1 1590.5L1339.19 1590.07C1342.33 1583.38 1345.39 1576.65 1348.37 1569.89L1349.29 1570.29C1352.27 1563.53 1355.18 1556.73 1358.01 1549.9L1357.09 1549.51C1359.92 1542.69 1362.67 1535.83 1365.35 1528.94L1366.28 1529.3C1368.96 1522.41 1371.56 1515.49 1374.09 1508.53L1373.15 1508.19C1375.66 1501.25 1378.11 1494.28 1380.47 1487.27L1381.42 1487.59C1383.78 1480.59 1386.07 1473.55 1388.28 1466.47L1387.33 1466.17C1389.53 1459.14 1391.65 1452.07 1393.7 1444.96L1394.66 1445.24C1396.71 1438.13 1398.68 1430.99 1400.57 1423.82L1399.6 1423.56C1401.48 1416.44 1403.28 1409.29 1405 1402.1L1405.98 1402.33C1407.7 1395.14 1409.34 1387.92 1410.91 1380.68L1409.93 1380.47C1411.49 1373.26 1412.97 1366.03 1414.36 1358.77L1415.34 1358.95C1416.74 1351.7 1418.06 1344.42 1419.29 1337.11L1418.31 1336.95C1419.54 1329.67 1420.69 1322.37 1421.76 1315.04L1422.75 1315.19C1423.81 1307.89 1424.8 1300.56 1425.71 1293.21L1424.71 1293.09C1425.62 1285.76 1426.44 1278.4 1427.18 1271.02L1428.17 1271.12C1428.91 1263.79 1429.57 1256.44 1430.14 1249.07L1429.14 1248.99C1429.72 1241.62 1430.21 1234.23 1430.62 1226.82L1431.62 1226.88C1432.03 1219.53 1432.36 1212.15 1432.6 1204.76L1431.6 1204.73C1431.85 1197.35 1432.01 1189.96 1432.09 1182.55L1433.09 1182.56C1433.13 1178.85 1433.15 1175.13 1433.15 1171.41Z" stroke="black" stroke-width="2" stroke-dasharray="22 22"/>
</g>
<defs>
<filter id="filter0_f_981_4" x="-708.459" y="213" width="4322.3" height="2351.64" filterUnits="userSpaceOnUse" color-interpolation-filters="sRGB">
<feFlood flood-opacity="0" result="BackgroundImageFix"/>
<feBlend mode="normal" in="SourceGraphic" in2="BackgroundImageFix" result="shape"/>
<feGaussianBlur stdDeviation="30" result="effect1_foregroundBlur_981_4"/>
</filter>
<filter id="filter1_f_981_4" x="1655" y="-201" width="1149.87" height="1077.49" filterUnits="userSpaceOnUse" color-interpolation-filters="sRGB">
<feFlood flood-opacity="0" result="BackgroundImageFix"/>
<feBlend mode="normal" in="SourceGraphic" in2="BackgroundImageFix" result="shape"/>
<feGaussianBlur stdDeviation="30" result="effect1_foregroundBlur_981_4"/>
</filter>
<radialGradient id="paint0_radial_981_4" cx="0" cy="0" r="1" gradientUnits="userSpaceOnUse" gradientTransform="translate(1412.23 1473.86) rotate(110.906) scale(796.429 2669.19)">
<stop offset="0.130208" stop-color="#FFD335" stop-opacity="0.91"/>
<stop offset="0.21875" stop-color="#F4B7E8" stop-opacity="0.86"/>
<stop offset="0.479167" stop-color="#A39FD1"/>
<stop offset="0.666667" stop-color="#271C3E"/>
<stop offset="0.822917" stop-color="#97BCF2" stop-opacity="0"/>
</radialGradient>
<radialGradient id="paint1_radial_981_4" cx="0" cy="0" r="1" gradientUnits="userSpaceOnUse" gradientTransform="translate(2191.93 689.596) rotate(111.689) scale(177.975 614.476)">
<stop offset="0.130208" stop-color="#FFD335" stop-opacity="0.91"/>
<stop offset="0.21875" stop-color="#F4B7E8" stop-opacity="0.86"/>
<stop offset="0.479167" stop-color="#A39FD1"/>
<stop offset="0.666667" stop-color="#271C3E"/>
<stop offset="0.822917" stop-color="#97BCF2" stop-opacity="0"/>
</radialGradient>
</defs>
</svg>
