<svg width="575" height="122" viewBox="0 0 575 122" fill="none" xmlns="http://www.w3.org/2000/svg">
<circle cx="38.4205" cy="61.9439" r="38.4205" fill="url(#paint0_radial_964_6)"/>
<path d="M71.7479 97.3011C64.9901 97.3011 58.8679 95.7622 53.3814 92.6844C47.8948 89.6065 43.5792 85.3913 40.4344 80.0385C37.2897 74.6189 35.7174 68.5636 35.7174 61.8727C35.7174 55.1818 37.2897 49.16 40.4344 43.8073C43.5792 38.3876 47.8948 34.1389 53.3814 31.0611C58.8679 27.9833 64.9901 26.4444 71.7479 26.4444C76.4984 26.4444 80.9144 27.2138 84.9959 28.7527C89.1443 30.2247 92.6904 32.4327 95.6344 35.3767L94.4301 36.7818C88.5421 31.1615 80.9814 28.3513 71.7479 28.3513C65.3915 28.3513 59.6039 29.8233 54.385 32.7673C49.233 35.7113 45.1515 39.7593 42.1406 44.9113C39.1966 49.9964 37.7246 55.6502 37.7246 61.8727C37.7246 68.0953 39.1966 73.7825 42.1406 78.9345C45.1515 84.0196 49.233 88.0342 54.385 90.9782C59.6039 93.9222 65.3915 95.3942 71.7479 95.3942C80.9144 95.3942 88.4752 92.5505 94.4301 86.8633L95.6344 88.2684C92.6904 91.2124 89.1443 93.4538 84.9959 94.9927C80.8475 96.5316 76.4315 97.3011 71.7479 97.3011ZM161.266 95.0931V97H114.497V26.7454H159.761V28.6524H116.504V60.3673H155.244V62.2742H116.504V95.0931H161.266ZM236.736 26.7454V97H235.03L183.544 30.4589V97H181.536V26.7454H183.242L234.729 93.2865V26.7454H236.736ZM276.621 28.6524H250.527V26.7454H304.723V28.6524H278.629V97H276.621V28.6524ZM357.584 75.8233H314.629L304.793 97H302.485L335.103 26.7454H337.11L369.728 97H367.42L357.584 75.8233ZM356.681 73.9164L336.107 29.4553L315.532 73.9164H356.681ZM433.391 26.7454L401.776 97H399.769L368.155 26.7454H370.463L400.773 94.2902L431.083 26.7454H433.391ZM496.146 97L478.281 72.2102C475.939 72.6785 473.196 72.9127 470.051 72.9127H448.272V97H446.265V26.7454H470.051C478.682 26.7454 485.44 28.7862 490.325 32.8676C495.209 36.8822 497.651 42.536 497.651 49.8291C497.651 55.4495 496.146 60.1665 493.135 63.9804C490.124 67.7273 485.875 70.3033 480.389 71.7084L498.655 97H496.146ZM470.252 71.0058C478.415 71.0058 484.671 69.1658 489.02 65.4858C493.436 61.8058 495.644 56.5869 495.644 49.8291C495.644 43.0713 493.436 37.8524 489.02 34.1724C484.671 30.4924 478.415 28.6524 470.252 28.6524H448.272V71.0058H470.252ZM560.762 75.8233H517.806L507.971 97H505.662L538.28 26.7454H540.288L572.906 97H570.598L560.762 75.8233ZM559.859 73.9164L539.284 29.4553L518.71 73.9164H559.859Z" fill="black"/>
<defs>
<radialGradient id="paint0_radial_964_6" cx="0" cy="0" r="1" gradientUnits="userSpaceOnUse" gradientTransform="translate(38.4205 61.9439) rotate(90.4182) scale(38.4215)">
<stop offset="0.0364309" stop-color="#F46ED7"/>
<stop offset="0.151021" stop-color="#F46ED7"/>
<stop offset="0.822936" stop-color="#DCD1F4"/>
<stop offset="1" stop-color="#E9A226" stop-opacity="0"/>
</radialGradient>
</defs>
</svg>
